<svg width="170" height="158" viewBox="0 0 170 158" fill="none" xmlns="http://www.w3.org/2000/svg">
<g clip-path="url(#clip0_473_1272)">
<path d="M81.9306 141.313H17.6949C11.4864 141.313 6.45361 136.28 6.45361 130.072V118.83H92.7286L81.9306 141.313Z" fill="#D3DCFB"/>
<path d="M152.607 51.3792V98.607V130.071H17.6949C11.4864 130.071 6.45361 125.038 6.45361 118.829V51.3792L85.1513 23.2746L152.607 51.3792Z" fill="#EBF5FC"/>
<path d="M26.3056 73.8627H20.3335C18.8785 73.8627 17.6987 72.683 17.6987 71.2279V65.2559C17.6987 63.8008 18.8785 62.6211 20.3335 62.6211H26.3056C27.7606 62.6211 28.9404 63.8008 28.9404 65.2559V71.2279C28.9404 72.683 27.7606 73.8627 26.3056 73.8627Z" fill="#3C58A0"/>
<path d="M48.789 73.8627H42.8169C41.3619 73.8627 40.1821 72.683 40.1821 71.2279V65.2559C40.1821 63.8008 41.3619 62.6211 42.8169 62.6211H48.789C50.244 62.6211 51.4238 63.8008 51.4238 65.2559V71.2279C51.4238 72.683 50.244 73.8627 48.789 73.8627Z" fill="#3C58A0"/>
<path d="M71.2724 73.8627H65.3003C63.8453 73.8627 62.6655 72.683 62.6655 71.2279V65.2559C62.6655 63.8008 63.8453 62.6211 65.3003 62.6211H71.2724C72.7274 62.6211 73.9072 63.8008 73.9072 65.2559V71.2279C73.9072 72.683 72.7278 73.8627 71.2724 73.8627Z" fill="#3C58A0"/>
<path d="M93.7563 73.8627H87.7842C86.3291 73.8627 85.1494 72.683 85.1494 71.2279V65.2559C85.1494 63.8008 86.3291 62.6211 87.7842 62.6211H93.7563C95.2113 62.6211 96.391 63.8008 96.391 65.2559V71.2279C96.391 72.683 95.2113 73.8627 93.7563 73.8627Z" fill="#3C58A0"/>
<path d="M116.236 73.8627H110.264C108.809 73.8627 107.629 72.683 107.629 71.2279V65.2559C107.629 63.8008 108.809 62.6211 110.264 62.6211H116.236C117.691 62.6211 118.871 63.8008 118.871 65.2559V71.2279C118.871 72.683 117.691 73.8627 116.236 73.8627Z" fill="#3C58A0"/>
<path d="M138.719 73.8627H132.747C131.292 73.8627 130.112 72.683 130.112 71.2279V65.2559C130.112 63.8008 131.292 62.6211 132.747 62.6211H138.719C140.174 62.6211 141.354 63.8008 141.354 65.2559V71.2279C141.354 72.683 140.174 73.8627 138.719 73.8627Z" fill="#3C58A0"/>
<path d="M26.3056 96.346H20.3335C18.8785 96.346 17.6987 95.1663 17.6987 93.7112V87.7391C17.6987 86.2841 18.8785 85.1044 20.3335 85.1044H26.3056C27.7606 85.1044 28.9404 86.2841 28.9404 87.7391V93.7112C28.9404 95.1666 27.7606 96.346 26.3056 96.346Z" fill="#3C58A0"/>
<path d="M48.789 96.346H42.8169C41.3619 96.346 40.1821 95.1663 40.1821 93.7112V87.7391C40.1821 86.2841 41.3619 85.1044 42.8169 85.1044H48.789C50.244 85.1044 51.4238 86.2841 51.4238 87.7391V93.7112C51.4238 95.1666 50.244 96.346 48.789 96.346Z" fill="#3C58A0"/>
<path d="M71.2724 96.346H65.3003C63.8453 96.346 62.6655 95.1663 62.6655 93.7112V87.7391C62.6655 86.2841 63.8453 85.1044 65.3003 85.1044H71.2724C72.7274 85.1044 73.9072 86.2841 73.9072 87.7391V93.7112C73.9072 95.1666 72.7278 96.346 71.2724 96.346Z" fill="#3C58A0"/>
<path d="M96.391 96.346V87.9147C96.391 86.3625 95.1329 85.1044 93.5807 85.1044H87.9597C86.4075 85.1044 85.1494 86.3625 85.1494 87.9147V93.5357C85.1494 95.0879 86.4079 96.346 87.9597 96.346H96.391Z" fill="#3C58A0"/>
<path d="M26.3056 118.83H20.3335C18.8785 118.83 17.6987 117.65 17.6987 116.195V110.223C17.6987 108.768 18.8785 107.588 20.3335 107.588H26.3056C27.7606 107.588 28.9404 108.768 28.9404 110.223V116.195C28.9404 117.65 27.7606 118.83 26.3056 118.83Z" fill="#3C58A0"/>
<path d="M48.789 118.83H42.8169C41.3619 118.83 40.1821 117.65 40.1821 116.195V110.223C40.1821 108.768 41.3619 107.588 42.8169 107.588H48.789C50.244 107.588 51.4238 108.768 51.4238 110.223V116.195C51.4238 117.65 50.244 118.83 48.789 118.83Z" fill="#3C58A0"/>
<path d="M71.2724 118.83H65.3003C63.8453 118.83 62.6655 117.65 62.6655 116.195V110.223C62.6655 108.768 63.8453 107.588 65.3003 107.588H71.2724C72.7274 107.588 73.9072 108.768 73.9072 110.223V116.195C73.9072 117.65 72.7278 118.83 71.2724 118.83Z" fill="#3C58A0"/>
<path d="M138.64 62.6208H132.827C132.475 62.6208 132.14 62.6899 131.832 62.8115C132.838 63.2087 133.55 64.1875 133.55 65.3349V71.1479C133.55 72.2954 132.837 73.2742 131.832 73.6714C132.14 73.7933 132.475 73.8624 132.827 73.8624H138.64C140.139 73.8624 141.354 72.6471 141.354 71.1483V65.3353C141.354 63.8361 140.139 62.6208 138.64 62.6208V62.6208Z" fill="#2A428C"/>
<path d="M116.156 62.6208H110.343C109.992 62.6208 109.657 62.6899 109.348 62.8115C110.354 63.2087 111.067 64.1875 111.067 65.3349V71.1479C111.067 72.2954 110.354 73.2742 109.348 73.6714C109.657 73.7933 109.992 73.8624 110.343 73.8624H116.156C117.656 73.8624 118.871 72.6471 118.871 71.1483V65.3353C118.871 63.8361 117.656 62.6208 116.156 62.6208V62.6208Z" fill="#2A428C"/>
<path d="M93.6764 62.6208H87.8635C87.5117 62.6208 87.1768 62.6899 86.8682 62.8115C87.8743 63.2087 88.5874 64.1875 88.5874 65.3349V71.1479C88.5874 72.2954 87.8743 73.2742 86.8682 73.6714C87.1768 73.7933 87.5117 73.8624 87.8635 73.8624H93.6764C95.1756 73.8624 96.3909 72.6471 96.3909 71.1483V65.3353C96.3906 63.8361 95.1753 62.6208 93.6764 62.6208V62.6208Z" fill="#2A428C"/>
<path d="M71.1931 62.6208H65.3801C65.0283 62.6208 64.6934 62.6899 64.3848 62.8115C65.3909 63.2087 66.104 64.1875 66.104 65.3349V71.1479C66.104 72.2954 65.3909 73.2742 64.3848 73.6714C64.6934 73.7933 65.0283 73.8624 65.3801 73.8624H71.1931C72.6922 73.8624 73.9075 72.6471 73.9075 71.1483V65.3353C73.9072 63.8361 72.6922 62.6208 71.1931 62.6208V62.6208Z" fill="#2A428C"/>
<path d="M48.7096 62.6208H42.8967C42.5449 62.6208 42.21 62.6899 41.9014 62.8115C42.9075 63.2087 43.6202 64.1875 43.6202 65.3349V71.1479C43.6202 72.2954 42.9072 73.2742 41.9014 73.6714C42.21 73.7933 42.5449 73.8624 42.8967 73.8624H48.7096C50.2088 73.8624 51.4241 72.6471 51.4241 71.1483V65.3353C51.4241 63.8361 50.2088 62.6208 48.7096 62.6208V62.6208Z" fill="#2A428C"/>
<path d="M26.2262 62.6208H20.4133C20.0615 62.6208 19.7266 62.6899 19.418 62.8115C20.4241 63.2087 21.1372 64.1875 21.1372 65.3349V71.1479C21.1372 72.2954 20.4241 73.2742 19.418 73.6714C19.7266 73.7933 20.0615 73.8624 20.4133 73.8624H26.2262C27.7254 73.8624 28.9407 72.6471 28.9407 71.1483V65.3353C28.9404 63.8361 27.7251 62.6208 26.2262 62.6208V62.6208Z" fill="#2A428C"/>
<path d="M26.2262 85.1044H20.4133C20.0615 85.1044 19.7266 85.1735 19.418 85.2951C20.4241 85.6923 21.1372 86.6711 21.1372 87.8185V93.6318C21.1372 94.7793 20.4241 95.7581 19.418 96.1553C19.7266 96.2772 20.0615 96.3463 20.4133 96.3463H26.2262C27.7254 96.3463 28.9407 95.131 28.9407 93.6322V87.8189C28.9404 86.3197 27.7251 85.1044 26.2262 85.1044V85.1044Z" fill="#2A428C"/>
<path d="M26.2262 107.588H20.4133C20.0615 107.588 19.7266 107.657 19.418 107.779C20.4241 108.176 21.1372 109.155 21.1372 110.302V116.115C21.1372 117.263 20.4241 118.242 19.418 118.639C19.7266 118.761 20.0615 118.83 20.4133 118.83H26.2262C27.7254 118.83 28.9407 117.615 28.9407 116.116V110.302C28.9404 108.803 27.7251 107.588 26.2262 107.588V107.588Z" fill="#2A428C"/>
<path d="M48.7096 85.1044H42.8967C42.5449 85.1044 42.21 85.1735 41.9014 85.2951C42.9075 85.6923 43.6202 86.6711 43.6202 87.8185V93.6318C43.6202 94.7793 42.9072 95.7581 41.9014 96.1553C42.21 96.2772 42.5449 96.3463 42.8967 96.3463H48.7096C50.2088 96.3463 51.4241 95.131 51.4241 93.6322V87.8189C51.4241 86.3197 50.2088 85.1044 48.7096 85.1044V85.1044Z" fill="#2A428C"/>
<path d="M48.7096 107.588H42.8967C42.5449 107.588 42.21 107.657 41.9014 107.779C42.9075 108.176 43.6202 109.155 43.6202 110.302V116.115C43.6202 117.263 42.9072 118.242 41.9014 118.639C42.21 118.761 42.5449 118.83 42.8967 118.83H48.7096C50.2088 118.83 51.4241 117.615 51.4241 116.116V110.302C51.4241 108.803 50.2088 107.588 48.7096 107.588V107.588Z" fill="#2A428C"/>
<path d="M71.1931 85.1044H65.3801C65.0283 85.1044 64.6934 85.1735 64.3848 85.2951C65.3909 85.6923 66.104 86.6711 66.104 87.8185V93.6318C66.104 94.7793 65.3909 95.7581 64.3848 96.1553C64.6934 96.2772 65.0283 96.3463 65.3801 96.3463H71.1931C72.6922 96.3463 73.9075 95.131 73.9075 93.6322V87.8189C73.9072 86.3197 72.6922 85.1044 71.1931 85.1044V85.1044Z" fill="#2A428C"/>
<path d="M96.3909 96.346V87.8185C96.3909 86.3193 95.1756 85.1044 93.6764 85.1044H87.8635C87.5117 85.1044 87.1768 85.1735 86.8682 85.2951C87.8743 85.6923 88.5874 86.6711 88.5874 87.8185V93.6318C88.5874 94.7793 87.8743 95.7581 86.8682 96.1553C87.1768 96.2772 87.5117 96.3463 87.8635 96.3463H96.3909V96.346Z" fill="#2A428C"/>
<path d="M71.1931 107.588H65.3801C65.0283 107.588 64.6934 107.657 64.3848 107.779C65.3909 108.176 66.104 109.155 66.104 110.302V116.115C66.104 117.263 65.3909 118.242 64.3848 118.639C64.6934 118.761 65.0283 118.83 65.3801 118.83H71.1931C72.6922 118.83 73.9075 117.615 73.9075 116.116V110.302C73.9072 108.803 72.6922 107.588 71.1931 107.588V107.588Z" fill="#2A428C"/>
<path d="M144.798 48.1255V98.607V130.071H152.607V98.607V51.3792L144.798 48.1255Z" fill="#D3DCFB"/>
<path d="M152.607 51.3791V23.2746C152.607 17.066 147.574 12.0333 141.366 12.0333H17.6949C11.4864 12.0333 6.45361 17.066 6.45361 23.2746V51.3791H152.607Z" fill="#FF4155"/>
<path d="M41.8748 25.8194H34.5577C33.1521 25.8194 32.0132 24.6802 32.0132 23.2749C32.0132 21.8696 33.1524 20.7303 34.5577 20.7303H41.8748C43.2805 20.7303 44.4194 21.8696 44.4194 23.2749C44.4194 24.6802 43.2802 25.8194 41.8748 25.8194V25.8194Z" fill="#E80054"/>
<path d="M59.8514 25.8194H52.5343C51.1286 25.8194 49.9897 24.6802 49.9897 23.2749C49.9897 21.8696 51.129 20.7303 52.5343 20.7303H59.8514C61.2571 20.7303 62.396 21.8696 62.396 23.2749C62.396 24.6802 61.2571 25.8194 59.8514 25.8194V25.8194Z" fill="#E80054"/>
<path d="M106.519 25.8194H99.2013C97.7956 25.8194 96.6567 24.6802 96.6567 23.2749C96.6567 21.8696 97.796 20.7303 99.2013 20.7303H106.519C107.924 20.7303 109.063 21.8696 109.063 23.2749C109.063 24.6802 107.924 25.8194 106.519 25.8194Z" fill="#E80054"/>
<path d="M124.495 25.8194H117.178C115.772 25.8194 114.633 24.6802 114.633 23.2749C114.633 21.8696 115.773 20.7303 117.178 20.7303H124.495C125.901 20.7303 127.04 21.8696 127.04 23.2749C127.04 24.6802 125.901 25.8194 124.495 25.8194Z" fill="#E80054"/>
<path d="M54.2307 21.8696C54.2307 25.75 51.0851 28.8956 47.2047 28.8956C43.3243 28.8956 40.1787 25.75 40.1787 21.8696V7.8173C40.1784 3.93692 43.324 0.791321 47.2044 0.791321C51.0847 0.791321 54.2303 3.93692 54.2303 7.8173V21.8696H54.2307Z" fill="#EBF5FC"/>
<path d="M118.875 21.8696C118.875 25.75 115.729 28.8956 111.849 28.8956C107.968 28.8956 104.822 25.75 104.822 21.8696V7.8173C104.822 3.93692 107.968 0.791321 111.848 0.791321C115.729 0.791321 118.874 3.93692 118.874 7.8173V21.8696H118.875Z" fill="#EBF5FC"/>
<path d="M111.848 0.791321C110.405 0.791321 109.066 1.22738 107.95 1.97302C109.835 3.23311 111.078 5.37947 111.078 7.81763V21.8696C111.078 24.3074 109.835 26.4541 107.95 27.7142C109.065 28.4595 110.405 28.8959 111.848 28.8959C115.728 28.8959 118.874 25.7503 118.874 21.8699V7.8173C118.874 3.93692 115.729 0.791321 111.848 0.791321V0.791321Z" fill="#D3DCFB"/>
<path d="M47.2043 0.791321C45.7618 0.791321 44.422 1.22738 43.3062 1.97302C45.1917 3.23311 46.4343 5.37947 46.4343 7.81763V21.8696C46.4343 24.3074 45.1917 26.4541 43.3062 27.7142C44.4217 28.4595 45.7618 28.8959 47.2043 28.8959C51.0847 28.8959 54.2303 25.7503 54.2303 21.8699V7.8173C54.2306 3.93692 51.085 0.791321 47.2043 0.791321V0.791321Z" fill="#D3DCFB"/>
<path d="M141.366 12.033H133.559C139.768 12.033 144.8 17.0657 144.8 23.2743V51.3792H152.607V23.2746C152.607 17.0661 147.574 12.033 141.366 12.033V12.033Z" fill="#E80054"/>
<path d="M6.45312 37.5927H152.607V42.6821H6.45312V37.5927Z" fill="#E80054"/>
<path d="M121.687 169.417C144.969 169.417 163.843 150.543 163.843 127.261C163.843 103.978 144.969 85.1044 121.687 85.1044C98.4044 85.1044 79.5303 103.978 79.5303 127.261C79.5303 150.543 98.4044 169.417 121.687 169.417Z" fill="#4FABF7"/>
<path d="M121.687 158.176C138.761 158.176 152.602 144.335 152.602 127.261C152.602 110.187 138.761 96.346 121.687 96.346C104.613 96.346 90.772 110.187 90.772 127.261C90.772 144.335 104.613 158.176 121.687 158.176Z" fill="#EBF5FC"/>
<path d="M121.687 124.184C120.281 124.184 119.142 123.045 119.142 121.64V107.588C119.142 106.182 120.281 105.043 121.687 105.043C123.092 105.043 124.231 106.182 124.231 107.588V121.64C124.231 123.045 123.092 124.184 121.687 124.184Z" fill="#3C58A0"/>
<path d="M135.739 129.805H127.307C125.902 129.805 124.763 128.666 124.763 127.261C124.763 125.856 125.902 124.716 127.307 124.716H135.739C137.145 124.716 138.283 125.856 138.283 127.261C138.283 128.666 137.144 129.805 135.739 129.805Z" fill="#3C58A0"/>
<path d="M121.687 85.1044C120.371 85.1044 119.07 85.1679 117.785 85.2858C139.238 87.255 156.039 105.294 156.039 127.261C156.039 149.227 139.237 167.267 117.785 169.236C119.07 169.354 120.371 169.417 121.686 169.417C144.969 169.417 163.843 150.543 163.843 127.261C163.843 103.979 144.969 85.1044 121.687 85.1044Z" fill="#1886EA"/>
<path d="M121.687 96.346C120.366 96.346 119.065 96.4293 117.788 96.5901C133.021 98.5072 144.803 111.508 144.803 127.261C144.803 143.014 133.021 156.015 117.788 157.932C119.065 158.092 120.366 158.176 121.687 158.176C138.76 158.176 152.602 144.335 152.602 127.261C152.602 110.187 138.76 96.346 121.687 96.346V96.346Z" fill="#D3DCFB"/>
<path d="M121.686 132.882C124.791 132.882 127.307 130.365 127.307 127.261C127.307 124.156 124.791 121.64 121.686 121.64C118.582 121.64 116.065 124.156 116.065 127.261C116.065 130.365 118.582 132.882 121.686 132.882Z" fill="#FFDD40"/>
</g>
<defs>
<clipPath id="clip0_473_1272">
<rect width="168.626" height="168.626" fill="white" transform="translate(0.834961 0.791321)"/>
</clipPath>
</defs>
</svg>
