<?xml version="1.0" encoding="UTF-8"?>
<svg id="Camada_1" data-name="Camada 1" xmlns="http://www.w3.org/2000/svg" xmlns:xlink="http://www.w3.org/1999/xlink" viewBox="0 0 90.13 102.15">
  <defs>
    <style>
      .cls-1 {
        fill: url(#linear-gradient);
      }
    </style>
    <linearGradient id="linear-gradient" x1="1.63" y1="50.88" x2="88.51" y2="50.88" gradientUnits="userSpaceOnUse">
      <stop offset=".16" stop-color="#00d5df"/>
      <stop offset=".8" stop-color="#0081ff"/>
      <stop offset="1" stop-color="#0057df"/>
    </linearGradient>
  </defs>
  <path class="cls-1" d="m88.16,38.07c-1.35-11.28-7.09-20.97-15.38-27.47C64.55,4.04,53.8.62,42.52,1.87,19.96,4.42,4.3,20.81,2.22,48.48c-1.01,14.07-.43,51.67-.43,51.67,0,0,36.73-8,50.17-12.24,26.46-8.29,38.85-27.28,36.2-49.84Zm-22.12,20.97c-8.48,10.65-24.05,12.39-34.75,3.9-10.75-8.48-12.58-24.05-4.1-34.7,8.43-10.7,24-12.44,34.75-3.95,10.7,8.48,12.53,24.05,4.1,34.75Z"/>
</svg>