<?xml version="1.0" encoding="UTF-8"?>
<svg id="Camada_1" data-name="Camada 1" xmlns="http://www.w3.org/2000/svg" xmlns:xlink="http://www.w3.org/1999/xlink" viewBox="0 0 213.19 104.83">
  <defs>
    <style>
      .cls-1 {
        fill: url(#linear-gradient-2);
      }

      .cls-2, .cls-3 {
        fill: #fff;
      }

      .cls-3 {
        font-family: BerlinSansFB-Reg, 'Berlin Sans FB';
        font-size: 17px;
      }

      .cls-4 {
        fill: url(#linear-gradient-3);
      }

      .cls-5 {
        fill: url(#linear-gradient);
      }
    </style>
    <linearGradient id="linear-gradient" x1="147.87" y1="25.74" x2="191.83" y2="25.74" gradientUnits="userSpaceOnUse">
      <stop offset=".16" stop-color="#00d5df"/>
      <stop offset=".8" stop-color="#0081ff"/>
      <stop offset="1" stop-color="#0057df"/>
    </linearGradient>
    <linearGradient id="linear-gradient-2" x1="0" y1="96.62" x2="13.01" y2="96.62" xlink:href="#linear-gradient"/>
    <linearGradient id="linear-gradient-3" x1="212.45" y1="96.62" x2="199.44" y2="96.62" xlink:href="#linear-gradient"/>
  </defs>
  <path class="cls-2" d="m27.86,77.7c0,.31-.08.76-.23,1.35-.18.74-.28,1.19-.32,1.35-.06.7-.2,1.73-.41,3.08-.1.35-.35.53-.76.53-.2,0-.57-.04-1.11-.12-2.4-.35-6.12-.53-11.16-.53-1.43,0-3.57.04-6.45.12-2.87.08-5.02.12-6.45.12-.64,0-.97-.28-.97-.85,0-2.19.12-5.47.37-9.86.24-4.38.37-7.67.37-9.86s-.12-6.38-.35-12.45c-.04-1.56-.15-3.9-.32-7l-.03-.41c-.02-.45.23-.67.76-.67,1.37,0,3.42.04,6.15.12,2.73.08,4.79.12,6.15.12s3.27-.04,5.87-.12c2.61-.08,4.57-.12,5.87-.12.92,0,1.42.28,1.49.85.41,2.58.62,4.18.62,4.8,0,.45-.22.67-.64.67-1.66,0-4.17-.09-7.54-.28-3.37-.19-5.9-.28-7.6-.28-1.6,0-2.61.22-3.03.64-.42.43-.63,1.49-.63,3.19v4.37c0,1.19.03,1.89.09,2.08.18.61.68.91,1.52.91.23,0,.57,0,1-.03h1c3.83,0,7.27-.07,10.31-.21,1.19-.04,2.6-.14,4.22-.29.41-.04.62.14.62.53,0,.63-.07,1.58-.22,2.87s-.22,2.26-.22,2.9c0,.35-.29.53-.88.53-.23,0-1.1-.07-2.61-.21-1.09-.12-3.56-.18-7.38-.18-3.22,0-5.26.04-6.12.12-.78.06-1.23.47-1.35,1.23.02-.14.03.62.03,2.26v4.34c0,2.03.31,3.3.94,3.81.49.41,1.71.62,3.66.62l3.22-.03c1.37,0,5.2-.23,11.51-.7l.44-.03c.39-.04.59.21.59.73Z"/>
  <path class="cls-2" d="m57.63,64.19c0,2.75-.09,4.36-.26,4.8-.29.88-1.88,3.45-4.75,7.71-2.95,4.36-4.71,6.65-5.27,6.88-.27.12-1.09.18-2.46.18s-2.17-.06-2.58-.18c-.55-.18-2.33-2.38-5.36-6.62-2.95-4.12-4.6-6.63-4.95-7.53-.47-1.23-.7-3.13-.7-5.71,0-.8.02-2,.06-3.6.04-1.6.06-2.8.06-3.6,0-.43.21-.64.64-.64.64,0,1.61.03,2.89.09,1.28.06,2.24.09,2.89.09.35,0,.53.2.53.59,0,.63-.04,1.55-.12,2.77-.08,1.22-.12,2.14-.12,2.77,0,1.8.1,3.44.29,4.92.1.74,1.09,2.56,2.97,5.45,1.88,2.89,3.05,4.34,3.5,4.34s1.49-1.42,3.19-4.25c1.68-2.77,2.58-4.52,2.7-5.24.16-.98.23-2.66.23-5.04,0-.64-.06-1.61-.19-2.9-.13-1.29-.19-2.26-.19-2.9,0-.29.15-.44.44-.44.64,0,1.59-.03,2.84-.1,1.25-.07,2.19-.1,2.81-.1s.91,2.76.91,8.29Z"/>
  <path class="cls-2" d="m87.51,67.85c0,1.45-.63,2.41-1.88,2.9-.84.31-6.88.89-18.13,1.73.25,1.72,1.2,3.18,2.84,4.39,1.56,1.15,3.24,1.73,5.04,1.73,3.09,0,5.92-1,8.5-2.99.31-.25.62-.51.94-.76.16,0,.26.02.31.06.05.04.41.72,1.1,2.04.68,1.32,1.03,2.03,1.03,2.12,0,.12-.16.34-.47.67-2.87,3.05-6.55,4.57-11.04,4.57s-8.14-1.35-10.84-4.06c-2.7-2.71-4.04-6.31-4.04-10.83,0-4.02,1.29-7.53,3.87-10.52,2.71-3.11,6.04-4.66,9.99-4.66,3.67,0,6.74,1.35,9.2,4.04,2.4,2.62,3.6,5.8,3.6,9.55Zm-6.97-1.79c0-1.62-.64-3.06-1.92-4.31-1.28-1.25-2.72-1.88-4.32-1.88-1.8,0-3.39.72-4.79,2.17-1.4,1.45-2.09,3.07-2.09,4.86,0,.41.35.62,1.05.62,2.89,0,6.35-.29,10.37-.88,1.13-.16,1.7-.35,1.7-.59Z"/>
  <path class="cls-2" d="m117.42,83c0,.43-.2.64-.59.64-.64,0-1.61,0-2.89-.03s-2.24-.03-2.89-.03c-.35,0-.53-.28-.53-.85,0-.96.03-2.41.09-4.37.06-1.95.09-3.42.09-4.39,0-.78-.01-1.95-.03-3.5-.02-1.55-.03-2.72-.03-3.5,0-2.23-.32-3.8-.97-4.72-.78-1.09-2.23-1.64-4.34-1.64-.98,0-2.33.55-4.07,1.64-1.84,1.15-2.75,2.18-2.75,3.08v17.58c0,.49-.19.73-.56.73-.63,0-1.56,0-2.81-.03-1.25-.02-2.19-.03-2.81-.03-.41,0-.62-.22-.62-.67,0-1.54.02-3.86.07-6.94.05-3.09.07-5.41.07-6.97,0-4.16-.44-8-1.32-11.51-.06-.18-.09-.3-.09-.38,0-.19.13-.33.38-.41.14-.02,1.25-.2,3.35-.54,2.1-.34,3.2-.51,3.3-.51.12,0,.19.16.23.47.1,1.21.32,2.43.67,3.66,1.02-.8,2.35-1.8,4.01-2.99,2.05-1.25,4.03-1.88,5.95-1.88,3.67,0,6.18,1.07,7.53,3.19,1,1.56,1.49,4.09,1.49,7.59,0,.61-.01,1.53-.04,2.78-.03,1.25-.04,2.19-.04,2.81,0,1.31.02,3.26.06,5.86.04,2.6.06,4.55.06,5.86Z"/>
  <path class="cls-2" d="m139.31,78.19c0,.43-.04,1.02-.12,1.76-.1.92-.16,1.51-.18,1.79-.02.35-.05.57-.09.64-.08.14-.26.27-.56.41-1.6.76-4.12,1.14-7.56,1.14-4.57,0-6.86-2.07-6.86-6.21,0-1.66.04-4.16.12-7.49.08-3.33.12-5.83.12-7.49,0-.8-.4-1.23-1.2-1.29-.72,0-1.44,0-2.14-.03-.41-.1-.62-.9-.62-2.4,0-.57.04-1.16.12-1.79.06-.47.37-.75.94-.85.49,0,.97,0,1.44-.03.9-.04,1.35-.44,1.35-1.2s-.02-1.97-.07-3.57c-.05-1.6-.07-2.8-.07-3.6,0-1.42.27-2.14.82-2.14.18,0,2.01.3,5.51.91.45.06.67.27.67.64,0,.86-.06,2.15-.19,3.87-.13,1.72-.19,3.01-.19,3.87,0,.57.26.85.79.85h7.03c.33,0,.5.12.5.35s-.03.61-.1,1.13c-.07.52-.1.9-.1,1.16,0,.29,0,.74.03,1.35.02.61.03,1.05.03,1.35,0,.37-.27.56-.82.56-.78,0-1.96-.05-3.54-.16-1.58-.11-2.76-.16-3.54-.16-.16,0-.27.56-.35,1.67-.1,1.39-.15,3.33-.15,5.83v4.37c0,1.68.16,2.85.47,3.52.47,1.02,1.44,1.52,2.9,1.52.61,0,1.49-.13,2.67-.4s2.04-.4,2.61-.4c.23,0,.35.18.35.53Z"/>
  <path class="cls-2" d="m150.91,56.48c0,1.5-.09,3.78-.28,6.81-.19,3.04-.28,5.32-.28,6.84,0,1.43.03,3.56.09,6.4s.09,4.97.09,6.37c0,.41-.18.62-.53.62h-5.71c-.41,0-.62-.4-.62-1.2,0-1.35.03-3.37.1-6.08.07-2.71.1-4.74.1-6.11,0-1.52-.11-3.81-.34-6.86s-.34-5.33-.34-6.86c0-.33.21-.5.62-.5.35,0,.89.05,1.63.15.73.1,1.28.15,1.66.15s.92-.05,1.66-.15c.73-.1,1.28-.15,1.66-.15.33,0,.5.19.5.56Z"/>
  <path class="cls-2" d="m183.25,69.32c0,4.08-1.34,7.57-4.01,10.46-2.73,2.99-6.12,4.48-10.17,4.48s-7.46-1.48-10.2-4.45c-2.68-2.87-4.01-6.35-4.01-10.43s1.34-7.56,4.01-10.43c2.75-2.93,6.15-4.39,10.2-4.39s7.4,1.46,10.14,4.39c2.7,2.85,4.04,6.31,4.04,10.37Zm-6.18.06c0-2.38-.73-4.41-2.2-6.09-1.52-1.78-3.46-2.67-5.8-2.67s-4.29.88-5.83,2.64c-1.46,1.7-2.2,3.74-2.2,6.12s.74,4.38,2.23,6.09c1.56,1.82,3.5,2.72,5.8,2.72s4.26-.91,5.8-2.72c1.46-1.72,2.2-3.75,2.2-6.09Z"/>
  <path class="cls-2" d="m213.19,83c0,.43-.2.64-.59.64-.64,0-1.61,0-2.89-.03s-2.24-.03-2.89-.03c-.35,0-.53-.28-.53-.85,0-.96.03-2.41.09-4.37.06-1.95.09-3.42.09-4.39,0-.78,0-1.95-.03-3.5s-.03-2.72-.03-3.5c0-2.23-.32-3.8-.97-4.72-.78-1.09-2.23-1.64-4.34-1.64-.98,0-2.33.55-4.07,1.64-1.84,1.15-2.75,2.18-2.75,3.08v17.58c0,.49-.19.73-.56.73-.62,0-1.56,0-2.81-.03s-2.19-.03-2.81-.03c-.41,0-.62-.22-.62-.67,0-1.54.02-3.86.07-6.94.05-3.09.07-5.41.07-6.97,0-4.16-.44-8-1.32-11.51-.06-.18-.09-.3-.09-.38,0-.19.13-.33.38-.41.14-.02,1.25-.2,3.35-.54,2.1-.34,3.2-.51,3.3-.51.12,0,.2.16.23.47.1,1.21.32,2.43.67,3.66,1.02-.8,2.35-1.8,4.01-2.99,2.05-1.25,4.03-1.88,5.95-1.88,3.67,0,6.18,1.07,7.53,3.19,1,1.56,1.49,4.09,1.49,7.59,0,.61-.01,1.53-.04,2.78-.03,1.25-.04,2.19-.04,2.81,0,1.31.02,3.26.06,5.86.04,2.6.06,4.55.06,5.86Z"/>
  <text class="cls-3" transform="translate(18.97 101.37)"><tspan x="0" y="0">Event Management App</tspan></text>
  <path class="cls-5" d="m191.65,19.26c-.67-5.7-3.59-10.6-7.77-13.91-4.17-3.31-9.61-5.04-15.31-4.39-11.41,1.29-19.35,9.58-20.38,23.57-.52,7.11-.24,26.13-.24,26.13,0,0,18.59-4.06,25.39-6.19,13.39-4.19,19.66-13.81,18.31-25.21Zm-28.77,12.58c-5.43-4.3-6.35-12.17-2.07-17.57,4.28-5.4,12.15-6.29,17.57-1.98,5.43,4.3,6.36,12.16,2.07,17.56-4.28,5.4-12.15,6.29-17.57,1.99Z"/>
  <rect class="cls-1" x="0" y="95.12" width="13" height="3.01" rx="1.5" ry="1.5"/>
  <rect class="cls-4" x="200.19" y="95.12" width="13" height="3.01" rx="1.5" ry="1.5"/>
</svg>