<?xml version="1.0" encoding="UTF-8"?>
<svg id="Camada_1" data-name="Camada 1" xmlns="http://www.w3.org/2000/svg" xmlns:xlink="http://www.w3.org/1999/xlink" viewBox="0 0 87.44 34.58">
  <defs>
    <style>
      .cls-1 {
        fill: url(#linear-gradient);
      }

      .cls-2 {
        fill: #231f20;
      }
    </style>
    <linearGradient id="linear-gradient" x1="60.65" y1="10.56" x2="78.68" y2="10.56" gradientUnits="userSpaceOnUse">
      <stop offset=".16" stop-color="#00d5df"/>
      <stop offset=".8" stop-color="#0081ff"/>
      <stop offset="1" stop-color="#0057df"/>
    </linearGradient>
  </defs>
  <path class="cls-2" d="m11.43,31.87c0,.13-.03.31-.1.55-.07.3-.12.49-.13.55-.02.29-.08.71-.17,1.26-.04.14-.14.22-.31.22-.08,0-.23-.02-.46-.05-.99-.14-2.51-.22-4.58-.22-.58,0-1.47.02-2.64.05-1.18.03-2.06.05-2.64.05-.26,0-.4-.12-.4-.35,0-.9.05-2.25.15-4.04.1-1.8.15-3.15.15-4.04s-.05-2.62-.14-5.11c-.02-.64-.06-1.6-.13-2.87v-.17c-.02-.18.08-.28.3-.28.56,0,1.4.02,2.52.05,1.12.03,1.96.05,2.52.05s1.34-.02,2.41-.05c1.07-.03,1.87-.05,2.41-.05.38,0,.58.12.61.35.17,1.06.25,1.71.25,1.97,0,.18-.09.28-.26.28-.68,0-1.71-.04-3.09-.11-1.38-.08-2.42-.11-3.12-.11-.66,0-1.07.09-1.24.26-.17.18-.26.61-.26,1.31v1.79c0,.49.01.77.04.85.07.25.28.37.62.37.1,0,.23,0,.41-.01h.41c1.57,0,2.98-.03,4.23-.08.49-.02,1.07-.06,1.73-.12.17-.02.25.06.25.22,0,.26-.03.65-.09,1.18s-.09.93-.09,1.19c0,.14-.12.22-.36.22-.1,0-.45-.03-1.07-.08-.45-.05-1.46-.07-3.03-.07-1.32,0-2.16.02-2.51.05-.32.02-.5.19-.55.5,0-.06.01.25.01.93v1.78c0,.83.13,1.35.38,1.56.2.17.7.25,1.5.25h1.32c.56-.01,2.13-.11,4.72-.3h.18c.16-.03.24.07.24.29Z"/>
  <path class="cls-2" d="m23.64,26.33c0,1.13-.04,1.79-.11,1.97-.12.36-.77,1.41-1.95,3.16-1.21,1.79-1.93,2.73-2.16,2.82-.11.05-.45.07-1.01.07s-.89-.02-1.06-.07c-.22-.07-.96-.98-2.2-2.72-1.21-1.69-1.89-2.72-2.03-3.09-.19-.5-.29-1.29-.29-2.34,0-.33,0-.82.02-1.48.02-.66.02-1.15.02-1.48,0-.18.09-.26.26-.26.26,0,.66.01,1.18.04.52.02.92.04,1.18.04.14,0,.22.08.22.24,0,.26-.02.64-.05,1.14-.03.5-.05.88-.05,1.14,0,.74.04,1.41.12,2.02.04.3.45,1.05,1.22,2.24.77,1.19,1.25,1.78,1.44,1.78s.61-.58,1.31-1.74c.69-1.14,1.06-1.85,1.11-2.15.06-.4.1-1.09.1-2.07,0-.26-.03-.66-.08-1.19-.05-.53-.08-.93-.08-1.19,0-.12.06-.18.18-.18.26,0,.65-.01,1.17-.04.51-.03.9-.04,1.15-.04s.37,1.13.37,3.4Z"/>
  <path class="cls-2" d="m35.89,27.83c0,.59-.26.99-.77,1.19-.34.13-2.82.36-7.44.71.1.7.49,1.31,1.17,1.8.64.47,1.33.71,2.07.71,1.27,0,2.43-.41,3.48-1.23.13-.1.26-.21.38-.31.06,0,.11,0,.13.02.02.02.17.29.45.84.28.54.42.83.42.87,0,.05-.06.14-.19.28-1.18,1.25-2.69,1.87-4.53,1.87s-3.34-.55-4.45-1.66c-1.11-1.11-1.66-2.59-1.66-4.44,0-1.65.53-3.09,1.59-4.31,1.11-1.27,2.48-1.91,4.1-1.91,1.51,0,2.76.55,3.77,1.66.99,1.07,1.48,2.38,1.48,3.92Zm-2.86-.73c0-.66-.26-1.25-.79-1.77-.52-.51-1.12-.77-1.77-.77-.74,0-1.39.3-1.96.89-.57.59-.86,1.26-.86,1.99,0,.17.14.25.43.25,1.19,0,2.6-.12,4.25-.36.46-.06.7-.14.7-.24Z"/>
  <path class="cls-2" d="m48.16,34.04c0,.18-.08.26-.24.26-.26,0-.66,0-1.18-.01s-.92-.01-1.18-.01c-.14,0-.22-.12-.22-.35,0-.39.01-.99.04-1.79.02-.8.04-1.4.04-1.8,0-.32,0-.8-.01-1.44,0-.64-.01-1.12-.01-1.44,0-.91-.13-1.56-.4-1.93-.32-.45-.91-.67-1.78-.67-.4,0-.96.22-1.67.67-.75.47-1.13.89-1.13,1.26v7.21c0,.2-.08.3-.23.3-.26,0-.64,0-1.15-.01-.51,0-.9-.01-1.15-.01-.17,0-.25-.09-.25-.28,0-.63.01-1.58.03-2.85.02-1.27.03-2.22.03-2.86,0-1.71-.18-3.28-.54-4.72-.02-.07-.04-.12-.04-.16,0-.08.05-.14.16-.17.06,0,.51-.08,1.38-.22.86-.14,1.31-.21,1.35-.21.05,0,.08.06.1.19.04.5.13,1,.28,1.5.42-.33.97-.74,1.65-1.23.84-.51,1.65-.77,2.44-.77,1.51,0,2.54.44,3.09,1.31.41.64.61,1.68.61,3.11,0,.25,0,.63-.02,1.14-.01.51-.02.9-.02,1.15,0,.54,0,1.34.02,2.4.02,1.07.02,1.87.02,2.4Z"/>
  <path class="cls-2" d="m57.14,32.07c0,.18-.02.42-.05.72-.04.38-.06.62-.07.73,0,.14-.02.23-.04.26-.03.06-.11.11-.23.17-.66.31-1.69.47-3.1.47-1.87,0-2.81-.85-2.81-2.55,0-.68.02-1.7.05-3.07.03-1.37.05-2.39.05-3.07,0-.33-.16-.5-.49-.53-.3,0-.59,0-.88-.01-.17-.04-.25-.37-.25-.99,0-.23.02-.48.05-.73.02-.19.15-.31.38-.35.2,0,.4,0,.59-.01.37-.02.55-.18.55-.49s-.01-.81-.03-1.47c-.02-.66-.03-1.15-.03-1.48,0-.58.11-.88.34-.88.07,0,.83.12,2.26.37.18.02.28.11.28.26,0,.35-.03.88-.08,1.59-.05.7-.08,1.23-.08,1.59,0,.23.11.35.32.35h2.88c.14,0,.2.05.2.14s-.01.25-.04.46c-.03.21-.04.37-.04.47,0,.12,0,.3.01.55,0,.25.01.43.01.55,0,.15-.11.23-.34.23-.32,0-.81-.02-1.45-.07-.65-.04-1.13-.07-1.45-.07-.06,0-.11.23-.14.68-.04.57-.06,1.37-.06,2.39v1.79c0,.69.06,1.17.19,1.44.19.42.59.62,1.19.62.25,0,.61-.05,1.09-.16s.84-.16,1.07-.16c.1,0,.14.07.14.22Z"/>
  <path class="cls-2" d="m61.9,23.17c0,.62-.04,1.55-.11,2.79-.08,1.25-.11,2.18-.11,2.81,0,.58.01,1.46.04,2.63s.04,2.04.04,2.61c0,.17-.07.25-.22.25h-2.34c-.17,0-.25-.16-.25-.49,0-.55.01-1.38.04-2.49.03-1.11.04-1.94.04-2.51,0-.62-.05-1.56-.14-2.81s-.14-2.19-.14-2.81c0-.14.08-.2.25-.2.14,0,.37.02.67.06.3.04.53.06.68.06s.38-.02.68-.06c.3-.04.53-.06.68-.06.14,0,.2.08.2.23Z"/>
  <path class="cls-2" d="m75.16,28.43c0,1.67-.55,3.1-1.65,4.29-1.12,1.23-2.51,1.84-4.17,1.84s-3.06-.61-4.18-1.83c-1.1-1.18-1.65-2.6-1.65-4.28s.55-3.1,1.65-4.28c1.13-1.2,2.52-1.8,4.18-1.8s3.04.6,4.16,1.8c1.11,1.17,1.66,2.59,1.66,4.25Zm-2.54.02c0-.98-.3-1.81-.9-2.5-.62-.73-1.42-1.09-2.38-1.09s-1.76.36-2.39,1.08c-.6.7-.9,1.53-.9,2.51s.3,1.79.91,2.5c.64.75,1.43,1.12,2.38,1.12s1.75-.37,2.38-1.12c.6-.7.9-1.54.9-2.5Z"/>
  <path class="cls-2" d="m87.44,34.04c0,.18-.08.26-.24.26-.26,0-.66,0-1.18-.01s-.92-.01-1.18-.01c-.14,0-.22-.12-.22-.35,0-.39.01-.99.04-1.79.02-.8.04-1.4.04-1.8,0-.32,0-.8-.01-1.44s-.01-1.12-.01-1.44c0-.91-.13-1.56-.4-1.93-.32-.45-.91-.67-1.78-.67-.4,0-.96.22-1.67.67-.75.47-1.13.89-1.13,1.26v7.21c0,.2-.08.3-.23.3-.26,0-.64,0-1.15-.01s-.9-.01-1.15-.01c-.17,0-.25-.09-.25-.28,0-.63.01-1.58.03-2.85.02-1.27.03-2.22.03-2.86,0-1.71-.18-3.28-.54-4.72-.02-.07-.04-.12-.04-.16,0-.08.05-.14.16-.17.06,0,.51-.08,1.38-.22.86-.14,1.31-.21,1.35-.21.05,0,.08.06.1.19.04.5.13,1,.28,1.5.42-.33.97-.74,1.65-1.23.84-.51,1.65-.77,2.44-.77,1.51,0,2.54.44,3.09,1.31.41.64.61,1.68.61,3.11,0,.25,0,.63-.02,1.14-.01.51-.02.9-.02,1.15,0,.54,0,1.34.02,2.4.02,1.07.02,1.87.02,2.4Z"/>
  <path class="cls-1" d="m78.61,7.9c-.28-2.34-1.47-4.35-3.19-5.7-1.71-1.36-3.94-2.07-6.28-1.81-4.68.53-7.93,3.93-8.36,9.67-.21,2.92-.09,10.72-.09,10.72,0,0,7.62-1.66,10.41-2.54,5.49-1.72,8.06-5.66,7.51-10.34Zm-4.59,4.35c-1.76,2.21-4.99,2.57-7.21.81-2.23-1.76-2.61-4.99-.85-7.2,1.75-2.22,4.98-2.58,7.21-.82,2.22,1.76,2.6,4.99.85,7.21Z"/>
</svg>